<svg xmlns="http://www.w3.org/2000/svg" id="canvas" viewBox="246.295 356.553 1055.369 235.219"><path d="M 285.07,389.04 C 284.70 390.25, 284.91 391.30, 285.18 394.76 C 285.46 398.22, 285.89 400.49, 286.43 406.33 C 286.98 412.16, 287.46 415.98, 287.89 423.95 C 288.32 431.93, 288.35 436.77, 288.58 446.21 C 288.81 455.65, 288.91 461.16, 289.03 471.17 C 289.14 481.19, 289.24 486.82, 289.15 496.29 C 289.06 505.76, 288.98 510.69, 288.57 518.51 C 288.16 526.34, 287.84 530.20, 287.10 535.42 C 286.35 540.65, 285.90 542.58, 284.84 544.66 C 283.77 546.74, 282.33 545.38, 281.77 545.82 C 281.20 546.26, 280.99 546.84, 282.03 546.86 C 283.08 546.88, 285.51 548.17, 287.00 545.94 C 288.49 543.72, 288.77 541.21, 289.47 535.74 C 290.16 530.27, 290.19 526.48, 290.46 518.60 C 290.74 510.71, 290.78 505.79, 290.83 496.30 C 290.88 486.82, 290.78 481.18, 290.70 471.16 C 290.62 461.13, 290.53 455.64, 290.43 446.18 C 290.32 436.72, 290.38 431.87, 290.17 423.86 C 289.97 415.85, 289.67 412.02, 289.40 406.12 C 289.13 400.22, 289.31 397.85, 288.84 394.37 C 288.37 390.89, 287.80 389.77, 287.05 388.71 C 286.30 387.64, 285.45 387.83, 285.07 389.04" style="stroke: black; fill: black;"/><path d="M 254.06,411.25 C 254.59 410.26, 254.51 409.08, 254.59 406.73 C 254.67 404.37, 254.20 402.80, 254.44 399.47 C 254.68 396.13, 254.49 393.92, 255.77 390.06 C 257.04 386.21, 258.04 383.99, 260.82 380.19 C 263.61 376.39, 265.55 374.17, 269.70 371.07 C 273.85 367.98, 276.47 366.46, 281.57 364.71 C 286.68 362.96, 289.81 362.37, 295.22 362.30 C 300.63 362.24, 303.75 362.75, 308.61 364.37 C 313.46 366.00, 316.13 367.31, 319.49 370.44 C 322.86 373.57, 324.28 375.54, 325.43 380.03 C 326.58 384.52, 326.53 387.34, 325.25 392.88 C 323.97 398.41, 322.43 401.93, 319.02 407.69 C 315.60 413.46, 312.73 416.70, 308.17 421.70 C 303.61 426.71, 300.49 429.24, 296.23 432.72 C 291.98 436.21, 289.32 437.20, 286.89 439.13 C 284.47 441.06, 283.81 441.66, 284.12 442.38 C 284.42 443.10, 285.62 443.31, 288.40 442.71 C 291.17 442.12, 293.29 440.53, 297.99 439.40 C 302.69 438.27, 306.02 437.28, 311.90 437.07 C 317.77 436.85, 321.51 436.88, 327.37 438.31 C 333.23 439.74, 336.47 440.99, 341.20 444.21 C 345.93 447.43, 348.21 449.65, 351.03 454.40 C 353.84 459.16, 354.83 462.08, 355.26 467.98 C 355.70 473.88, 355.25 477.37, 353.20 483.89 C 351.16 490.42, 349.35 494.13, 345.02 500.60 C 340.69 507.07, 337.66 510.58, 331.56 516.23 C 325.45 521.89, 321.45 524.67, 314.50 528.90 C 307.56 533.13, 303.53 535.15, 296.83 537.37 C 290.13 539.59, 286.51 539.96, 281.00 540.02 C 275.48 540.08, 272.84 539.38, 269.27 537.67 C 265.69 535.96, 264.42 534.67, 263.11 531.47 C 261.81 528.28, 261.70 526.18, 262.75 521.69 C 263.81 517.21, 264.95 514.40, 268.40 509.05 C 271.86 503.71, 274.30 500.56, 280.03 494.97 C 285.75 489.38, 289.57 486.32, 297.04 481.10 C 304.50 475.88, 308.97 473.13, 317.34 468.86 C 325.70 464.59, 330.40 462.59, 338.86 459.75 C 347.32 456.92, 351.83 455.92, 359.66 454.67 C 367.49 453.42, 371.40 453.30, 378.02 453.50 C 384.63 453.70, 387.83 454.40, 392.72 455.67 C 397.62 456.94, 399.63 458.14, 402.50 459.83 C 405.38 461.52, 406.21 462.53, 407.10 464.12 C 407.99 465.71, 407.89 466.21, 406.95 467.80 C 406.02 469.38, 404.92 470.11, 402.42 472.04 C 399.91 473.96, 398.03 475.15, 394.44 477.40 C 390.86 479.66, 388.48 480.73, 384.50 483.32 C 380.52 485.91, 378.10 487.26, 374.55 490.35 C 371.01 493.44, 369.10 495.20, 366.78 498.78 C 364.46 502.35, 363.50 504.39, 362.93 508.22 C 362.37 512.05, 362.57 514.39, 363.98 517.91 C 365.39 521.43, 366.87 523.46, 369.99 525.80 C 373.12 528.14, 375.42 529.05, 379.61 529.61 C 383.80 530.16, 386.43 529.94, 390.95 528.57 C 395.48 527.20, 398.08 525.81, 402.24 522.76 C 406.40 519.72, 408.60 517.62, 411.75 513.36 C 414.91 509.10, 416.40 506.39, 418.02 501.47 C 419.64 496.55, 420.07 493.60, 419.86 488.75 C 419.66 483.90, 418.87 481.29, 416.99 477.21 C 415.11 473.13, 413.50 471.26, 410.46 468.35 C 407.42 465.43, 405.24 464.22, 401.79 462.63 C 398.33 461.05, 396.06 460.41, 393.20 460.44 C 390.34 460.47, 388.68 461.37, 387.48 462.78 C 386.28 464.19, 386.08 465.82, 387.20 467.48 C 388.32 469.13, 389.79 470.35, 393.10 471.05 C 396.40 471.76, 398.87 471.43, 403.72 471.01 C 408.58 470.60, 411.62 470.15, 417.36 468.97 C 423.09 467.78, 426.49 466.89, 432.41 465.09 C 438.33 463.29, 441.61 461.86, 446.95 459.96 C 452.28 458.06, 455.04 456.89, 459.11 455.60 C 463.17 454.31, 465.02 453.99, 467.28 453.50 C 469.55 453.02, 470.00 452.57, 470.42 453.19 C 470.83 453.82, 470.02 454.38, 469.36 456.63 C 468.70 458.88, 468.13 460.82, 467.11 464.44 C 466.10 468.06, 465.34 470.47, 464.29 474.74 C 463.23 479.00, 462.48 481.48, 461.82 485.76 C 461.16 490.03, 460.78 492.42, 461.00 496.09 C 461.21 499.76, 461.62 501.48, 462.90 504.09 C 464.18 506.70, 465.34 507.73, 467.39 509.14 C 469.45 510.55, 470.79 510.99, 473.20 511.13 C 475.60 511.27, 477.13 510.89, 479.41 509.85 C 481.70 508.80, 482.79 507.91, 484.63 505.90 C 486.47 503.89, 487.37 502.56, 488.63 499.79 C 489.89 497.01, 490.22 495.20, 490.91 492.03 C 491.60 488.86, 491.80 487.08, 492.09 483.95 C 492.38 480.82, 492.38 479.18, 492.35 476.38 C 492.32 473.59, 492.08 472.20, 491.92 469.98 C 491.77 467.76, 491.77 466.78, 491.57 465.27 C 491.38 463.77, 491.14 463.02, 490.95 462.47 C 490.77 461.91, 490.49 462.14, 490.64 462.48 C 490.79 462.82, 490.96 463.22, 491.68 464.17 C 492.41 465.11, 492.94 465.63, 494.26 467.20 C 495.58 468.78, 496.51 469.74, 498.28 472.04 C 500.06 474.34, 501.28 475.69, 503.13 478.72 C 504.97 481.74, 505.94 483.54, 507.50 487.17 C 509.06 490.81, 509.85 492.88, 510.92 496.89 C 511.99 500.91, 512.45 503.21, 512.85 507.27 C 513.25 511.34, 513.21 513.67, 512.91 517.22 C 512.60 520.77, 511.89 522.57, 511.33 525.04 C 510.77 527.52, 510.54 528.56, 510.09 529.59 C 509.64 530.62, 509.53 530.76, 509.10 530.20 C 508.67 529.63, 508.53 528.86, 507.92 526.78 C 507.32 524.71, 506.49 523.15, 506.08 519.81 C 505.66 516.48, 505.42 514.15, 505.86 510.11 C 506.30 506.08, 506.78 503.72, 508.27 499.63 C 509.76 495.54, 510.88 493.33, 513.33 489.67 C 515.77 486.01, 517.40 484.26, 520.50 481.32 C 523.60 478.39, 525.37 477.03, 528.83 474.98 C 532.28 472.94, 534.23 472.13, 537.77 471.11 C 541.32 470.08, 543.31 469.74, 546.57 469.84 C 549.84 469.94, 551.35 470.35, 554.10 471.59 C 556.84 472.82, 558.18 473.70, 560.30 476.02 C 562.42 478.33, 563.41 479.70, 564.69 483.18 C 565.97 486.65, 566.37 488.95, 566.71 493.39 C 567.06 497.83, 567.00 500.48, 566.41 505.39 C 565.82 510.29, 565.18 513.11, 563.76 517.91 C 562.34 522.72, 561.17 525.47, 559.31 529.41 C 557.45 533.35, 555.88 535.27, 554.46 537.61 C 553.05 539.95, 552.73 541.00, 552.24 541.13 C 551.75 541.27, 552.11 540.73, 552.02 538.27 C 551.93 535.81, 551.41 533.63, 551.79 528.84 C 552.18 524.05, 552.60 520.39, 553.96 514.32 C 555.32 508.26, 556.36 504.44, 558.59 498.50 C 560.83 492.56, 562.32 489.47, 565.14 484.62 C 567.96 479.78, 569.63 477.53, 572.69 474.27 C 575.75 471.01, 577.41 469.93, 580.43 468.33 C 583.45 466.72, 584.92 466.50, 587.77 466.23 C 590.62 465.95, 592.01 466.22, 594.68 466.97 C 597.34 467.72, 598.65 468.51, 601.11 469.99 C 603.56 471.47, 604.81 472.59, 606.97 474.39 C 609.13 476.19, 610.18 477.25, 611.91 478.98 C 613.63 480.72, 614.47 481.50, 615.62 483.07 C 616.76 484.64, 617.15 485.21, 617.62 486.83 C 618.09 488.44, 618.04 489.26, 617.97 491.13 C 617.90 493.00, 617.60 494.10, 617.28 496.18 C 616.97 498.27, 616.49 499.55, 616.41 501.57 C 616.33 503.59, 616.25 504.84, 616.88 506.28 C 617.52 507.72, 618.24 508.56, 619.57 508.77 C 620.91 508.99, 621.92 508.80, 623.54 507.37 C 625.16 505.95, 625.98 504.56, 627.65 501.64 C 629.33 498.72, 630.06 496.47, 631.92 492.76 C 633.78 489.05, 634.91 486.69, 636.96 483.11 C 639.01 479.52, 640.63 477.51, 642.16 474.84 C 643.70 472.17, 643.90 470.73, 644.64 469.77 C 645.38 468.80, 645.55 470.15, 645.87 470.01 C 646.19 469.87, 646.79 469.55, 646.25 469.07 C 645.71 468.58, 644.80 466.98, 643.18 467.60 C 641.56 468.22, 640.14 469.51, 638.14 472.18 C 636.15 474.86, 635.26 477.31, 633.20 480.97 C 631.14 484.64, 629.95 486.98, 627.83 490.52 C 625.71 494.06, 624.29 495.90, 622.61 498.67 C 620.94 501.45, 620.10 502.70, 619.44 504.39 C 618.79 506.08, 619.05 506.77, 619.34 507.14 C 619.63 507.51, 620.31 507.18, 620.91 506.23 C 621.51 505.27, 621.90 504.24, 622.34 502.36 C 622.78 500.48, 622.94 499.10, 623.11 496.82 C 623.27 494.54, 623.39 493.22, 623.17 490.94 C 622.95 488.66, 622.74 487.51, 622.01 485.41 C 621.29 483.30, 620.80 482.44, 619.53 480.43 C 618.27 478.42, 617.54 477.39, 615.68 475.37 C 613.82 473.36, 612.67 472.28, 610.24 470.35 C 607.81 468.43, 606.40 467.30, 603.51 465.75 C 600.61 464.20, 599.00 463.30, 595.75 462.60 C 592.50 461.90, 590.66 461.72, 587.25 462.27 C 583.85 462.82, 582.09 463.35, 578.74 465.35 C 575.39 467.35, 573.70 468.70, 570.52 472.28 C 567.33 475.87, 565.71 478.24, 562.83 483.29 C 559.94 488.34, 558.46 491.48, 556.09 497.54 C 553.72 503.60, 552.57 507.42, 550.97 513.60 C 549.38 519.79, 548.72 523.39, 548.11 528.46 C 547.50 533.53, 547.11 536.03, 547.92 538.96 C 548.73 541.89, 550.18 542.90, 552.17 543.12 C 554.15 543.35, 555.77 542.53, 557.85 540.08 C 559.93 537.62, 560.76 535.11, 562.55 530.86 C 564.35 526.60, 565.42 523.81, 566.83 518.80 C 568.24 513.79, 568.95 510.92, 569.63 505.79 C 570.30 500.66, 570.46 497.94, 570.19 493.16 C 569.92 488.38, 569.65 485.87, 568.27 481.90 C 566.90 477.93, 565.80 476.12, 563.30 473.31 C 560.80 470.50, 559.10 469.33, 555.77 467.84 C 552.44 466.36, 550.47 465.95, 546.66 465.88 C 542.85 465.82, 540.63 466.32, 536.70 467.54 C 532.77 468.75, 530.73 469.71, 527.02 471.97 C 523.31 474.23, 521.45 475.70, 518.15 478.86 C 514.84 482.02, 513.15 483.87, 510.50 487.77 C 507.86 491.66, 506.66 493.99, 504.92 498.35 C 503.17 502.70, 502.57 505.14, 501.79 509.53 C 501.01 513.91, 500.79 516.41, 501.04 520.28 C 501.29 524.15, 501.68 526.36, 503.03 528.87 C 504.39 531.38, 505.90 532.25, 507.80 532.83 C 509.70 533.42, 510.89 533.09, 512.54 531.79 C 514.19 530.49, 515.15 529.20, 516.04 526.33 C 516.94 523.46, 516.91 521.34, 517.02 517.45 C 517.13 513.56, 517.09 511.17, 516.60 506.87 C 516.11 502.57, 515.63 500.19, 514.57 495.95 C 513.50 491.71, 512.73 489.56, 511.26 485.66 C 509.80 481.77, 508.88 479.87, 507.25 476.48 C 505.61 473.09, 504.76 471.43, 503.09 468.73 C 501.42 466.03, 500.61 464.73, 498.91 462.98 C 497.21 461.23, 496.22 460.65, 494.59 459.97 C 492.96 459.28, 492.08 459.25, 490.74 459.54 C 489.40 459.84, 488.67 460.28, 487.90 461.42 C 487.13 462.57, 487.10 463.51, 486.90 465.26 C 486.69 467.01, 486.87 467.94, 486.87 470.17 C 486.88 472.40, 486.95 473.74, 486.93 476.40 C 486.92 479.06, 487.07 480.59, 486.81 483.47 C 486.55 486.35, 486.31 488.01, 485.63 490.81 C 484.94 493.61, 484.39 495.13, 483.38 497.45 C 482.37 499.77, 481.82 500.82, 480.57 502.40 C 479.32 503.97, 478.60 504.47, 477.14 505.31 C 475.67 506.15, 474.74 506.49, 473.26 506.58 C 471.77 506.67, 470.99 506.62, 469.71 505.75 C 468.43 504.88, 467.77 504.20, 466.87 502.21 C 465.96 500.23, 465.42 498.99, 465.20 495.82 C 464.97 492.65, 465.10 490.36, 465.73 486.37 C 466.36 482.37, 467.15 479.95, 468.35 475.83 C 469.55 471.72, 470.60 469.50, 471.73 465.79 C 472.86 462.09, 473.89 460.17, 474.00 457.33 C 474.10 454.49, 473.69 453.11, 472.25 451.60 C 470.81 450.10, 469.65 449.61, 466.81 449.78 C 463.97 449.95, 462.21 450.96, 458.04 452.46 C 453.88 453.96, 451.25 455.29, 445.97 457.28 C 440.68 459.27, 437.45 460.69, 431.61 462.41 C 425.77 464.14, 422.40 464.97, 416.78 465.89 C 411.17 466.82, 408.10 467.02, 403.54 467.04 C 398.97 467.07, 396.83 466.39, 393.97 466.02 C 391.11 465.66, 390.21 465.44, 389.22 465.21 C 388.22 464.99, 388.26 464.87, 389.00 464.88 C 389.74 464.88, 390.68 464.91, 392.91 465.24 C 395.14 465.57, 397.12 465.38, 400.13 466.54 C 403.15 467.70, 405.23 468.61, 408.00 471.03 C 410.77 473.45, 412.24 475.06, 413.99 478.64 C 415.73 482.21, 416.49 484.52, 416.72 488.90 C 416.94 493.27, 416.60 495.99, 415.12 500.52 C 413.63 505.04, 412.23 507.59, 409.28 511.51 C 406.33 515.44, 404.21 517.39, 400.35 520.13 C 396.48 522.87, 394.01 524.07, 389.97 525.22 C 385.93 526.37, 383.65 526.39, 380.14 525.86 C 376.62 525.34, 374.89 524.49, 372.40 522.60 C 369.90 520.71, 368.81 519.18, 367.66 516.41 C 366.51 513.64, 366.24 511.88, 366.67 508.75 C 367.09 505.61, 367.75 503.87, 369.78 500.72 C 371.82 497.57, 373.51 495.86, 376.84 493.00 C 380.18 490.13, 382.51 488.82, 386.45 486.41 C 390.40 484.00, 392.79 483.09, 396.56 480.93 C 400.33 478.77, 402.51 477.92, 405.28 475.61 C 408.06 473.30, 409.47 471.98, 410.43 469.37 C 411.39 466.75, 411.35 465.02, 410.09 462.54 C 408.83 460.06, 407.49 458.85, 404.13 456.98 C 400.78 455.11, 398.52 454.29, 393.31 453.18 C 388.09 452.06, 384.85 451.47, 378.06 451.40 C 371.27 451.34, 367.31 451.51, 359.36 452.86 C 351.41 454.20, 346.87 455.23, 338.31 458.13 C 329.75 461.02, 325.03 463.04, 316.56 467.33 C 308.10 471.62, 303.59 474.36, 295.99 479.59 C 288.39 484.81, 284.51 487.84, 278.57 493.45 C 272.64 499.07, 270.04 502.16, 266.32 507.68 C 262.60 513.19, 261.16 516.05, 259.97 521.04 C 258.79 526.02, 258.76 528.79, 260.39 532.61 C 262.01 536.43, 263.97 538.17, 268.10 540.12 C 272.23 542.08, 275.16 542.53, 281.04 542.37 C 286.92 542.21, 290.60 541.69, 297.49 539.33 C 304.38 536.96, 308.43 534.88, 315.51 530.55 C 322.58 526.21, 326.63 523.41, 332.87 517.65 C 339.11 511.89, 342.22 508.36, 346.71 501.74 C 351.19 495.12, 353.12 491.34, 355.30 484.56 C 357.47 477.77, 358.03 474.09, 357.60 467.81 C 357.16 461.54, 356.12 458.30, 353.12 453.17 C 350.13 448.04, 347.64 445.64, 342.62 442.15 C 337.60 438.67, 334.18 437.39, 328.03 435.74 C 321.88 434.10, 318.02 433.96, 311.85 433.94 C 305.67 433.92, 302.15 434.67, 297.17 435.63 C 292.20 436.59, 289.55 437.38, 286.95 438.74 C 284.35 440.10, 283.78 441.77, 284.16 442.43 C 284.53 443.09, 286.03 443.55, 288.81 442.04 C 291.60 440.53, 293.82 438.61, 298.06 434.88 C 302.30 431.14, 305.40 428.55, 310.01 423.36 C 314.63 418.17, 317.59 414.93, 321.14 408.95 C 324.69 402.97, 326.37 399.38, 327.76 393.46 C 329.14 387.54, 329.34 384.37, 328.07 379.36 C 326.80 374.34, 325.13 371.92, 321.42 368.39 C 317.70 364.87, 314.74 363.49, 309.50 361.73 C 304.25 359.96, 300.95 359.49, 295.19 359.56 C 289.42 359.62, 286.12 360.23, 280.67 362.05 C 275.23 363.87, 272.44 365.44, 267.94 368.66 C 263.44 371.89, 261.36 374.16, 258.18 378.16 C 255.00 382.16, 253.75 384.50, 252.03 388.67 C 250.31 392.83, 250.05 395.30, 249.59 398.98 C 249.12 402.67, 249.25 404.58, 249.71 407.11 C 250.18 409.64, 251.03 410.81, 251.90 411.64 C 252.77 412.47, 253.52 412.23, 254.06 411.25" style="stroke: black; fill: black;"/><path d="M 640.31,454.16 C 639.69 454.72, 639.50 455.20, 639.16 456.83 C 638.81 458.46, 638.50 459.54, 638.58 462.31 C 638.67 465.08, 639.15 467.05, 639.60 470.68 C 640.04 474.31, 640.22 476.55, 640.80 480.45 C 641.39 484.35, 641.54 486.65, 642.52 490.17 C 643.50 493.69, 643.96 495.70, 645.71 498.07 C 647.46 500.44, 648.78 501.36, 651.26 502.01 C 653.74 502.66, 655.39 502.69, 658.11 501.32 C 660.83 499.96, 662.20 498.29, 664.87 495.18 C 667.55 492.06, 668.89 489.64, 671.48 485.74 C 674.08 481.85, 675.57 479.17, 677.85 475.70 C 680.12 472.24, 681.60 470.35, 682.86 468.40 C 684.12 466.45, 684.02 465.68, 684.15 465.96 C 684.28 466.24, 683.69 467.29, 683.52 469.79 C 683.35 472.29, 683.45 474.54, 683.29 478.48 C 683.13 482.41, 682.88 485.31, 682.72 489.46 C 682.57 493.61, 682.10 495.99, 682.52 499.23 C 682.94 502.47, 683.41 504.07, 684.81 505.66 C 686.20 507.25, 687.40 507.77, 689.48 507.19 C 691.55 506.61, 692.88 505.55, 695.18 502.76 C 697.48 499.97, 698.47 497.48, 700.97 493.23 C 703.47 488.97, 705.00 486.02, 707.69 481.48 C 710.39 476.94, 712.21 474.08, 714.45 470.54 C 716.70 467.01, 717.88 465.41, 718.90 463.80 C 719.93 462.19, 719.69 461.80, 719.58 462.50 C 719.47 463.20, 718.72 464.45, 718.35 467.31 C 717.98 470.17, 717.88 472.76, 717.75 476.81 C 717.62 480.86, 717.43 483.62, 717.69 487.57 C 717.95 491.52, 717.95 493.79, 719.05 496.58 C 720.15 499.38, 721.14 500.54, 723.21 501.54 C 725.27 502.54, 726.79 502.77, 729.37 501.58 C 731.94 500.39, 733.36 498.70, 736.07 495.58 C 738.79 492.47, 740.19 490.04, 742.93 486.00 C 745.68 481.96, 747.26 479.26, 749.78 475.40 C 752.30 471.53, 753.86 469.39, 755.53 466.69 C 757.21 463.99, 757.63 462.79, 758.15 461.91 C 758.68 461.02, 758.33 461.06, 758.14 462.26 C 757.95 463.45, 757.32 464.92, 757.21 467.90 C 757.09 470.88, 757.26 473.33, 757.57 477.15 C 757.88 480.97, 758.06 483.43, 758.75 486.98 C 759.45 490.53, 759.65 492.47, 761.05 494.90 C 762.45 497.33, 763.52 498.39, 765.75 499.13 C 767.98 499.87, 769.63 499.82, 772.19 498.61 C 774.75 497.40, 775.98 495.95, 778.56 493.08 C 781.14 490.20, 782.48 487.95, 785.11 484.23 C 787.73 480.52, 789.42 477.76, 791.66 474.49 C 793.91 471.22, 795.14 469.49, 796.33 467.88 C 797.51 466.28, 797.39 465.83, 797.59 466.48 C 797.79 467.13, 797.34 468.42, 797.33 471.14 C 797.32 473.85, 797.39 476.25, 797.56 480.05 C 797.73 483.86, 797.52 486.61, 798.19 490.16 C 798.86 493.71, 799.32 495.69, 800.91 497.81 C 802.51 499.93, 803.82 500.85, 806.17 500.76 C 808.52 500.67, 810.40 499.52, 812.65 497.36 C 814.91 495.21, 816.14 493.02, 817.46 490.00 C 818.78 486.97, 819.41 484.02, 819.26 482.24 C 819.10 480.46, 818.07 480.10, 816.68 481.10 C 815.29 482.09, 813.99 484.70, 812.32 487.23 C 810.64 489.75, 809.65 491.61, 808.32 493.72 C 806.99 495.84, 806.45 497.35, 805.67 497.79 C 804.89 498.23, 804.88 497.59, 804.43 495.92 C 803.97 494.24, 803.70 492.64, 803.40 489.41 C 803.09 486.19, 803.09 483.59, 802.91 479.80 C 802.72 476.01, 803.22 473.47, 802.46 470.46 C 801.70 467.46, 800.86 465.87, 799.12 464.78 C 797.38 463.69, 795.99 463.59, 793.77 465.01 C 791.55 466.44, 790.46 468.57, 788.02 471.91 C 785.59 475.26, 784.19 478.13, 781.59 481.73 C 779.00 485.33, 777.40 487.34, 775.06 489.92 C 772.72 492.51, 771.56 493.43, 769.90 494.66 C 768.25 495.88, 767.73 496.37, 766.78 496.05 C 765.83 495.72, 765.75 495.01, 765.14 493.03 C 764.53 491.05, 764.15 489.40, 763.72 486.15 C 763.29 482.91, 763.14 480.52, 762.97 476.81 C 762.80 473.10, 763.31 470.73, 762.89 467.62 C 762.48 464.50, 762.09 462.80, 760.87 461.24 C 759.66 459.68, 758.61 459.23, 756.82 459.82 C 755.03 460.41, 753.97 461.49, 751.91 464.19 C 749.86 466.89, 748.98 469.41, 746.53 473.32 C 744.08 477.23, 742.44 479.87, 739.67 483.73 C 736.91 487.59, 735.19 489.80, 732.69 492.62 C 730.20 495.45, 728.80 496.59, 727.18 497.87 C 725.56 499.14, 725.32 499.53, 724.59 499.00 C 723.87 498.48, 723.99 497.58, 723.56 495.24 C 723.14 492.91, 722.63 490.96, 722.49 487.32 C 722.34 483.67, 722.65 481.01, 722.85 477.02 C 723.05 473.02, 723.80 470.46, 723.47 467.34 C 723.14 464.22, 722.58 462.58, 721.20 461.40 C 719.81 460.22, 718.55 460.03, 716.55 461.44 C 714.55 462.85, 713.59 464.81, 711.20 468.44 C 708.81 472.08, 707.33 475.09, 704.60 479.63 C 701.87 484.16, 700.17 487.05, 697.54 491.10 C 694.90 495.15, 693.30 497.20, 691.41 499.88 C 689.53 502.55, 688.93 503.60, 688.12 504.47 C 687.30 505.34, 687.49 505.33, 687.35 504.22 C 687.21 503.11, 687.40 501.83, 687.41 498.91 C 687.42 496.00, 687.24 493.69, 687.41 489.64 C 687.57 485.60, 688.06 482.74, 688.25 478.69 C 688.43 474.64, 688.96 472.24, 688.32 469.37 C 687.68 466.50, 686.76 465.10, 685.05 464.35 C 683.34 463.59, 681.90 463.78, 679.75 465.59 C 677.61 467.40, 676.64 469.81, 674.31 473.39 C 671.98 476.96, 670.65 479.69, 668.09 483.46 C 665.53 487.23, 663.97 489.48, 661.51 492.24 C 659.05 495.01, 657.66 496.02, 655.79 497.28 C 653.92 498.55, 653.42 498.91, 652.17 498.57 C 650.92 498.23, 650.57 497.51, 649.52 495.59 C 648.48 493.67, 647.80 492.11, 646.97 488.96 C 646.13 485.81, 645.78 483.58, 645.36 479.85 C 644.94 476.12, 644.92 473.89, 644.86 470.31 C 644.79 466.73, 645.28 464.69, 645.05 461.94 C 644.82 459.18, 644.25 458.11, 643.69 456.54 C 643.14 454.96, 642.95 454.54, 642.27 454.06 C 641.59 453.58, 640.94 453.61, 640.31 454.16" style="stroke: black; fill: black;"/><path d="M 805.65,424.14 C 806.40 423.80, 806.84 423.40, 806.77 423.10 C 806.70 422.79, 806.13 422.61, 805.31 422.61 C 804.50 422.61, 803.45 422.76, 802.69 423.08 C 801.93 423.40, 801.46 423.86, 801.52 424.20 C 801.59 424.54, 802.20 424.78, 803.03 424.77 C 803.86 424.76, 804.90 424.47, 805.65 424.14" style="stroke: black; fill: black;"/><path d="M 858.05,461.34 C 858.09 460.52, 857.90 459.99, 857.03 458.88 C 856.15 457.78, 855.53 456.86, 853.66 455.80 C 851.79 454.74, 850.35 453.94, 847.70 453.58 C 845.04 453.22, 843.24 453.17, 840.38 453.99 C 837.52 454.81, 835.84 455.46, 833.39 457.66 C 830.94 459.87, 829.75 461.67, 828.10 465.02 C 826.46 468.37, 825.71 470.55, 825.16 474.42 C 824.60 478.28, 824.58 480.66, 825.33 484.34 C 826.09 488.02, 826.78 490.19, 828.92 492.81 C 831.07 495.43, 832.80 496.58, 836.07 497.45 C 839.33 498.31, 841.48 498.09, 845.26 497.14 C 849.04 496.20, 851.21 495.15, 854.95 492.71 C 858.68 490.28, 860.69 488.43, 863.94 484.97 C 867.19 481.52, 868.77 479.17, 871.19 475.45 C 873.62 471.72, 875.05 469.55, 876.06 466.35 C 877.08 463.16, 876.87 461.05, 876.27 459.47 C 875.68 457.89, 874.17 457.36, 873.09 458.46 C 872.01 459.56, 871.36 461.15, 870.86 464.97 C 870.36 468.79, 870.44 471.59, 870.59 477.58 C 870.73 483.57, 871.01 487.47, 871.58 494.93 C 872.16 502.38, 872.61 506.80, 873.47 514.87 C 874.33 522.95, 875.02 527.43, 875.88 535.28 C 876.75 543.13, 877.32 547.25, 877.79 554.13 C 878.26 561.00, 878.49 564.45, 878.22 569.65 C 877.95 574.85, 877.44 577.11, 876.45 580.13 C 875.47 583.15, 874.82 583.93, 873.29 584.75 C 871.77 585.56, 871.00 585.26, 868.82 584.22 C 866.63 583.17, 864.91 582.34, 862.37 579.51 C 859.83 576.68, 858.15 574.55, 856.12 570.07 C 854.09 565.59, 852.99 562.65, 852.23 557.11 C 851.46 551.58, 851.34 548.34, 852.29 542.39 C 853.23 536.44, 854.30 533.32, 856.94 527.36 C 859.57 521.41, 861.41 518.35, 865.46 512.59 C 869.51 506.84, 872.08 504.03, 877.18 498.60 C 882.29 493.17, 885.39 490.58, 890.99 485.44 C 896.58 480.30, 899.69 477.63, 905.16 472.90 C 910.63 468.17, 913.55 465.90, 918.35 461.81 C 923.14 457.71, 925.54 455.82, 929.15 452.45 C 932.75 449.07, 934.57 447.65, 936.36 444.92 C 938.16 442.19, 938.37 440.80, 938.12 438.78 C 937.87 436.76, 937.05 435.65, 935.10 434.82 C 933.15 433.98, 931.23 433.67, 928.35 434.61 C 925.48 435.56, 923.62 436.90, 920.75 439.56 C 917.87 442.21, 916.31 444.11, 913.98 447.89 C 911.65 451.66, 910.44 454.00, 909.11 458.43 C 907.79 462.86, 907.22 465.63, 907.37 470.05 C 907.51 474.47, 908.05 476.95, 909.83 480.53 C 911.61 484.12, 913.11 485.95, 916.27 487.99 C 919.42 490.03, 921.63 490.67, 925.60 490.73 C 929.57 490.79, 932.00 490.11, 936.12 488.30 C 940.24 486.49, 942.40 484.89, 946.18 481.68 C 949.96 478.47, 951.84 476.24, 955.01 472.26 C 958.18 468.28, 959.79 465.51, 962.03 461.79 C 964.27 458.07, 965.42 455.86, 966.22 453.67 C 967.02 451.47, 966.46 450.64, 966.04 450.80 C 965.61 450.96, 964.58 451.91, 964.08 454.47 C 963.58 457.02, 963.54 459.54, 963.55 463.59 C 963.56 467.63, 963.60 470.67, 964.13 474.70 C 964.67 478.73, 964.78 480.97, 966.23 483.75 C 967.68 486.53, 968.95 487.67, 971.39 488.59 C 973.83 489.51, 975.64 489.65, 978.43 488.37 C 981.23 487.08, 982.60 485.38, 985.35 482.16 C 988.10 478.94, 989.51 476.53, 992.18 472.28 C 994.85 468.04, 996.50 464.88, 998.70 460.92 C 1000.90 456.97, 1002.23 454.78, 1003.18 452.51 C 1004.13 450.24, 1003.69 449.31, 1003.43 449.59 C 1003.18 449.87, 1002.26 451.14, 1001.92 453.91 C 1001.58 456.68, 1001.60 459.35, 1001.72 463.43 C 1001.83 467.51, 1001.74 470.38, 1002.51 474.31 C 1003.28 478.24, 1003.67 480.49, 1005.54 483.08 C 1007.41 485.66, 1009.01 486.68, 1011.85 487.23 C 1014.69 487.78, 1016.47 487.45, 1019.73 485.84 C 1022.99 484.23, 1024.74 482.45, 1028.16 479.18 C 1031.57 475.91, 1033.49 473.48, 1036.80 469.49 C 1040.11 465.50, 1041.98 462.79, 1044.71 459.23 C 1047.44 455.66, 1049.06 453.70, 1050.45 451.66 C 1051.85 449.63, 1051.58 448.75, 1051.68 449.06 C 1051.78 449.36, 1051.04 450.46, 1050.95 453.20 C 1050.87 455.93, 1051.01 458.57, 1051.24 462.74 C 1051.48 466.92, 1051.49 469.88, 1052.14 474.09 C 1052.78 478.29, 1053.01 480.72, 1054.47 483.76 C 1055.93 486.81, 1057.08 488.16, 1059.46 489.31 C 1061.84 490.46, 1063.58 490.71, 1066.37 489.49 C 1069.15 488.28, 1070.63 486.57, 1073.37 483.22 C 1076.12 479.86, 1077.44 477.41, 1080.09 472.72 C 1082.73 468.02, 1084.30 464.66, 1086.61 459.76 C 1088.93 454.85, 1090.18 451.73, 1091.64 448.20 C 1093.10 444.67, 1093.74 443.47, 1093.92 442.10 C 1094.10 440.74, 1093.59 440.43, 1092.54 441.36 C 1091.48 442.30, 1090.47 443.41, 1088.66 446.79 C 1086.85 450.17, 1085.82 453.43, 1083.48 458.26 C 1081.15 463.09, 1079.65 466.46, 1077.01 470.94 C 1074.36 475.41, 1072.77 477.67, 1070.26 480.63 C 1067.75 483.59, 1066.29 484.59, 1064.45 485.74 C 1062.60 486.89, 1062.18 487.12, 1061.02 486.37 C 1059.86 485.63, 1059.52 484.62, 1058.65 482.03 C 1057.77 479.44, 1057.17 477.35, 1056.66 473.44 C 1056.15 469.54, 1056.28 466.65, 1056.09 462.50 C 1055.91 458.35, 1056.45 455.65, 1055.74 452.68 C 1055.04 449.70, 1054.21 448.36, 1052.55 447.61 C 1050.90 446.86, 1049.64 447.06, 1047.46 448.92 C 1045.29 450.79, 1044.34 453.28, 1041.65 456.93 C 1038.97 460.59, 1037.26 463.31, 1034.03 467.19 C 1030.80 471.07, 1028.76 473.37, 1025.50 476.34 C 1022.25 479.32, 1020.35 480.60, 1017.75 482.05 C 1015.15 483.49, 1014.20 483.86, 1012.51 483.59 C 1010.82 483.32, 1010.35 482.71, 1009.30 480.69 C 1008.25 478.68, 1007.73 476.99, 1007.25 473.51 C 1006.76 470.04, 1006.93 467.26, 1006.86 463.31 C 1006.79 459.36, 1007.41 456.70, 1006.88 453.76 C 1006.36 450.81, 1005.67 449.30, 1004.24 448.61 C 1002.81 447.92, 1001.57 448.25, 999.75 450.32 C 997.93 452.39, 997.31 454.98, 995.13 458.96 C 992.96 462.93, 991.49 466.12, 988.89 470.20 C 986.29 474.28, 984.65 476.52, 982.13 479.37 C 979.62 482.21, 978.22 483.18, 976.31 484.40 C 974.41 485.62, 973.77 485.98, 972.62 485.48 C 971.46 484.98, 971.24 484.17, 970.52 481.91 C 969.80 479.64, 969.37 477.81, 969.03 474.15 C 968.70 470.48, 968.86 467.50, 968.85 463.57 C 968.84 459.65, 969.41 457.22, 968.98 454.53 C 968.54 451.83, 967.92 450.65, 966.69 450.09 C 965.45 449.52, 964.42 449.75, 962.82 451.70 C 961.22 453.65, 960.78 456.13, 958.68 459.83 C 956.59 463.53, 955.28 466.33, 952.34 470.18 C 949.41 474.03, 947.52 476.12, 943.99 479.07 C 940.45 482.03, 938.34 483.39, 934.67 484.96 C 931.00 486.52, 928.91 486.94, 925.65 486.90 C 922.39 486.85, 920.85 486.35, 918.37 484.75 C 915.88 483.14, 914.68 481.82, 913.22 478.85 C 911.75 475.89, 911.15 473.81, 911.04 469.94 C 910.93 466.08, 911.40 463.49, 912.67 459.53 C 913.94 455.57, 915.14 453.37, 917.41 450.13 C 919.67 446.88, 921.37 445.38, 923.98 443.31 C 926.59 441.23, 928.37 440.85, 930.46 439.76 C 932.55 438.68, 933.43 438.08, 934.44 437.88 C 935.44 437.69, 935.72 437.82, 935.49 438.80 C 935.26 439.78, 934.94 440.48, 933.27 442.80 C 931.60 445.12, 930.43 446.97, 927.14 450.42 C 923.85 453.86, 921.47 455.85, 916.79 460.03 C 912.12 464.20, 909.20 466.51, 903.76 471.29 C 898.32 476.07, 895.21 478.75, 889.59 483.92 C 883.97 489.10, 880.84 491.68, 875.66 497.16 C 870.48 502.64, 867.85 505.48, 863.68 511.33 C 859.51 517.18, 857.59 520.28, 854.81 526.41 C 852.03 532.54, 850.87 535.76, 849.79 541.97 C 848.71 548.18, 848.75 551.58, 849.40 557.46 C 850.04 563.35, 851.03 566.47, 853.03 571.40 C 855.03 576.33, 856.55 578.76, 859.39 582.11 C 862.23 585.45, 864.15 587.04, 867.24 588.12 C 870.33 589.20, 872.37 588.90, 874.83 587.51 C 877.28 586.11, 878.31 584.69, 879.50 581.14 C 880.70 577.59, 880.70 575.17, 880.79 569.74 C 880.89 564.30, 880.54 560.90, 879.96 553.96 C 879.39 547.02, 878.79 542.91, 877.91 535.05 C 877.02 527.19, 876.34 522.72, 875.56 514.66 C 874.79 506.61, 874.37 502.19, 874.03 494.78 C 873.69 487.36, 873.65 483.47, 873.88 477.60 C 874.11 471.73, 874.90 469.09, 875.17 465.41 C 875.44 461.73, 875.54 460.41, 875.24 459.20 C 874.95 457.99, 874.42 458.24, 873.71 459.35 C 872.99 460.46, 872.81 461.95, 871.65 464.76 C 870.50 467.58, 870.02 469.89, 867.94 473.43 C 865.86 476.97, 864.27 479.25, 861.25 482.45 C 858.23 485.64, 856.25 487.30, 852.85 489.43 C 849.45 491.55, 847.39 492.31, 844.26 493.06 C 841.13 493.81, 839.55 493.78, 837.19 493.17 C 834.83 492.55, 833.94 491.94, 832.46 490.00 C 830.98 488.06, 830.33 486.44, 829.77 483.47 C 829.21 480.49, 829.16 478.35, 829.68 475.10 C 830.21 471.85, 830.95 469.90, 832.39 467.22 C 833.83 464.53, 835.03 463.24, 836.89 461.65 C 838.76 460.07, 839.77 459.68, 841.70 459.29 C 843.64 458.91, 844.77 459.28, 846.59 459.73 C 848.42 460.17, 849.29 460.88, 850.83 461.51 C 852.37 462.14, 853.11 462.58, 854.31 462.88 C 855.50 463.18, 856.06 463.33, 856.81 463.02 C 857.56 462.72, 858.01 462.17, 858.05 461.34" style="stroke: black; fill: black;"/><path d="M 1081.38,425.84 C 1080.52 426.02, 1079.89 426.58, 1079.72 427.26 C 1079.56 427.95, 1079.87 428.73, 1080.55 429.27 C 1081.24 429.82, 1082.25 430.14, 1083.13 430.00 C 1084.01 429.85, 1084.76 429.25, 1084.94 428.53 C 1085.11 427.81, 1084.73 426.93, 1084.02 426.39 C 1083.31 425.86, 1082.24 425.67, 1081.38 425.84" style="stroke: black; fill: black;"/><path d="M 1111.84,450.67 C 1111.03 450.92, 1110.73 451.36, 1109.74 452.60 C 1108.75 453.83, 1107.95 454.61, 1106.89 456.86 C 1105.84 459.11, 1105.26 460.79, 1104.47 463.86 C 1103.68 466.93, 1103.27 468.80, 1102.96 472.20 C 1102.64 475.60, 1102.29 477.57, 1102.90 480.84 C 1103.51 484.11, 1104.04 486.11, 1106.00 488.54 C 1107.96 490.98, 1109.62 492.28, 1112.70 493.01 C 1115.78 493.73, 1117.84 493.52, 1121.38 492.18 C 1124.92 490.83, 1127.03 489.38, 1130.39 486.29 C 1133.75 483.21, 1135.68 481.04, 1138.18 476.75 C 1140.68 472.47, 1141.77 469.64, 1142.89 464.87 C 1144.02 460.09, 1144.34 457.27, 1143.79 452.86 C 1143.24 448.44, 1142.40 446.13, 1140.15 442.80 C 1137.90 439.46, 1135.92 437.90, 1132.52 436.17 C 1129.12 434.44, 1126.70 434.10, 1123.16 434.15 C 1119.63 434.21, 1117.42 434.82, 1114.85 436.44 C 1112.28 438.05, 1111.10 439.60, 1110.31 442.22 C 1109.52 444.85, 1109.51 446.96, 1110.89 449.56 C 1112.28 452.17, 1113.85 453.61, 1117.24 455.24 C 1120.62 456.88, 1123.14 457.42, 1127.80 457.74 C 1132.47 458.06, 1135.36 457.79, 1140.54 456.84 C 1145.72 455.88, 1148.68 454.80, 1153.70 452.98 C 1158.71 451.17, 1161.44 449.78, 1165.61 447.77 C 1169.77 445.76, 1172.11 444.54, 1174.53 442.94 C 1176.95 441.33, 1177.37 440.08, 1177.71 439.76 C 1178.04 439.43, 1177.07 439.52, 1176.22 441.31 C 1175.37 443.10, 1174.62 444.90, 1173.44 448.71 C 1172.26 452.53, 1171.35 455.51, 1170.33 460.38 C 1169.31 465.26, 1168.61 468.32, 1168.35 473.08 C 1168.09 477.85, 1167.97 480.45, 1169.02 484.22 C 1170.07 487.98, 1171.00 490.02, 1173.60 491.90 C 1176.20 493.79, 1178.31 494.14, 1182.00 493.64 C 1185.69 493.15, 1187.86 492.02, 1192.05 489.43 C 1196.23 486.84, 1198.69 484.74, 1202.93 480.70 C 1207.16 476.67, 1209.48 473.78, 1213.24 469.26 C 1217.00 464.75, 1219.08 461.85, 1221.72 458.11 C 1224.36 454.38, 1225.57 452.50, 1226.46 450.58 C 1227.34 448.67, 1226.68 447.97, 1226.15 448.52 C 1225.62 449.07, 1224.56 450.29, 1223.83 453.33 C 1223.09 456.36, 1222.79 459.20, 1222.49 463.69 C 1222.19 468.17, 1222.06 471.20, 1222.34 475.75 C 1222.63 480.29, 1222.57 482.88, 1223.93 486.42 C 1225.29 489.95, 1226.41 491.84, 1229.14 493.43 C 1231.87 495.02, 1233.99 495.23, 1237.58 494.36 C 1241.18 493.50, 1243.18 492.15, 1247.11 489.11 C 1251.03 486.06, 1253.29 483.69, 1257.22 479.14 C 1261.15 474.60, 1263.27 471.49, 1266.77 466.39 C 1270.27 461.28, 1271.91 458.10, 1274.71 453.61 C 1277.51 449.13, 1279.01 446.97, 1280.78 443.94 C 1282.55 440.92, 1283.14 439.70, 1283.55 438.48 C 1283.97 437.26, 1283.34 437.08, 1282.84 437.85 C 1282.35 438.61, 1281.34 439.88, 1281.08 442.31 C 1280.83 444.75, 1280.99 446.65, 1281.56 450.01 C 1282.13 453.38, 1282.87 455.42, 1283.94 459.13 C 1285.01 462.84, 1285.67 464.95, 1286.89 468.56 C 1288.12 472.16, 1288.92 473.99, 1290.08 477.15 C 1291.23 480.30, 1291.87 481.83, 1292.68 484.34 C 1293.50 486.85, 1293.93 487.84, 1294.15 489.68 C 1294.36 491.53, 1294.24 492.34, 1293.74 493.56 C 1293.25 494.77, 1292.86 495.10, 1291.66 495.77 C 1290.47 496.43, 1289.59 496.69, 1287.77 496.88 C 1285.94 497.07, 1284.71 496.98, 1282.54 496.74 C 1280.36 496.50, 1278.93 496.28, 1276.90 495.69 C 1274.88 495.10, 1273.90 494.41, 1272.40 493.79 C 1270.91 493.17, 1270.30 493.03, 1269.44 492.59 C 1268.57 492.15, 1268.60 491.67, 1268.06 491.58 C 1267.52 491.49, 1266.96 491.50, 1266.73 492.15 C 1266.51 492.79, 1266.33 493.60, 1266.92 494.81 C 1267.51 496.02, 1268.06 496.90, 1269.68 498.20 C 1271.29 499.51, 1272.54 500.41, 1275.00 501.33 C 1277.47 502.25, 1279.24 502.62, 1282.01 502.81 C 1284.78 503.00, 1286.38 502.94, 1288.84 502.28 C 1291.30 501.62, 1292.56 500.95, 1294.32 499.53 C 1296.07 498.11, 1296.75 497.21, 1297.61 495.19 C 1298.48 493.17, 1298.70 491.89, 1298.66 489.42 C 1298.62 486.95, 1298.29 485.61, 1297.41 482.83 C 1296.53 480.05, 1295.55 478.65, 1294.27 475.52 C 1292.99 472.39, 1292.18 470.68, 1291.03 467.17 C 1289.88 463.67, 1289.24 461.60, 1288.51 458.01 C 1287.78 454.41, 1287.72 452.39, 1287.36 449.19 C 1287.00 445.99, 1287.23 444.39, 1286.71 442.01 C 1286.20 439.63, 1285.79 438.32, 1284.79 437.29 C 1283.78 436.26, 1283.12 435.92, 1281.67 436.86 C 1280.22 437.80, 1279.46 438.94, 1277.55 441.98 C 1275.64 445.02, 1274.75 447.50, 1272.12 452.06 C 1269.50 456.62, 1267.86 459.77, 1264.43 464.78 C 1260.99 469.79, 1258.82 472.82, 1254.94 477.13 C 1251.05 481.44, 1248.67 483.64, 1245.01 486.34 C 1241.35 489.04, 1239.41 489.85, 1236.63 490.62 C 1233.84 491.38, 1232.86 491.28, 1231.08 490.17 C 1229.30 489.07, 1228.64 488.00, 1227.72 485.08 C 1226.81 482.16, 1226.62 479.76, 1226.51 475.56 C 1226.41 471.36, 1226.78 468.40, 1227.21 464.08 C 1227.64 459.75, 1228.62 457.13, 1228.67 453.94 C 1228.73 450.76, 1228.44 449.21, 1227.48 448.16 C 1226.52 447.10, 1225.59 447.07, 1223.86 448.66 C 1222.14 450.25, 1221.45 452.37, 1218.85 456.11 C 1216.26 459.84, 1214.51 462.87, 1210.89 467.33 C 1207.28 471.80, 1204.91 474.60, 1200.78 478.42 C 1196.65 482.24, 1194.11 484.15, 1190.24 486.44 C 1186.37 488.73, 1184.32 489.37, 1181.44 489.86 C 1178.56 490.34, 1177.59 490.18, 1175.84 488.86 C 1174.08 487.54, 1173.42 486.36, 1172.66 483.26 C 1171.90 480.15, 1171.71 477.71, 1172.05 473.32 C 1172.38 468.93, 1173.15 465.96, 1174.33 461.30 C 1175.50 456.65, 1176.80 453.91, 1177.93 450.06 C 1179.05 446.22, 1179.94 444.45, 1179.94 442.07 C 1179.94 439.69, 1179.43 438.73, 1177.92 438.16 C 1176.42 437.58, 1175.23 437.89, 1172.44 439.19 C 1169.66 440.49, 1167.97 442.48, 1164.00 444.64 C 1160.03 446.80, 1157.40 448.20, 1152.60 449.97 C 1147.79 451.75, 1144.86 452.73, 1139.97 453.51 C 1135.08 454.30, 1132.30 454.37, 1128.15 453.89 C 1124.01 453.41, 1121.92 452.43, 1119.24 451.12 C 1116.55 449.81, 1115.74 448.87, 1114.73 447.34 C 1113.72 445.81, 1113.69 444.84, 1114.19 443.46 C 1114.68 442.09, 1115.37 441.41, 1117.19 440.47 C 1119.01 439.53, 1120.58 438.89, 1123.30 438.76 C 1126.01 438.63, 1128.01 438.60, 1130.77 439.83 C 1133.54 441.05, 1135.21 442.19, 1137.13 444.88 C 1139.05 447.58, 1139.87 449.45, 1140.36 453.29 C 1140.85 457.13, 1140.63 459.75, 1139.58 464.08 C 1138.54 468.41, 1137.49 471.07, 1135.12 474.93 C 1132.76 478.78, 1130.84 480.73, 1127.78 483.36 C 1124.72 485.99, 1122.64 487.01, 1119.83 488.06 C 1117.02 489.11, 1115.75 489.09, 1113.73 488.62 C 1111.72 488.15, 1110.92 487.43, 1109.76 485.72 C 1108.61 484.00, 1108.27 482.62, 1107.97 480.05 C 1107.67 477.48, 1107.79 475.76, 1108.26 472.87 C 1108.74 469.97, 1109.44 468.31, 1110.35 465.59 C 1111.27 462.86, 1112.08 461.47, 1112.83 459.24 C 1113.57 457.01, 1113.89 455.99, 1114.08 454.42 C 1114.28 452.85, 1114.24 452.13, 1113.79 451.38 C 1113.34 450.63, 1112.65 450.43, 1111.84 450.67" style="stroke: black; fill: black;"/></svg>