<svg xmlns="http://www.w3.org/2000/svg" viewBox="0 0 900 120" width="900" height="120">
  <rect width="900" height="120" fill="transparent"/>
  <!-- pixel grid accent -->
  <g fill="#0EA5E9" opacity="0.35">
    <rect x="24" y="52" width="8" height="8"/>
    <rect x="32" y="52" width="8" height="8"/>
    <rect x="40" y="44" width="8" height="8"/>
    <rect x="848" y="44" width="8" height="8"/>
    <rect x="856" y="52" width="8" height="8"/>
    <rect x="864" y="52" width="8" height="8"/>
  </g>
  <!-- BOS PRIMIGENIOUS - pixel letter blocks -->
  <g fill="#0F172A" font-family="'Courier New', Courier, monospace" font-weight="700" font-size="28" letter-spacing="6">
    <text x="450" y="58" text-anchor="middle">BOS PRIMIGENIOUS</text>
  </g>
  <g fill="#64748B" font-family="'Courier New', Courier, monospace" font-size="14" letter-spacing="2">
    <text x="450" y="88" text-anchor="middle">making ideas real Ę glad we met</text>
  </g>
  <!-- pixel underline -->
  <g fill="#0EA5E9">
    <rect x="320" y="98" width="8" height="4"/>
    <rect x="328" y="98" width="8" height="4"/>
    <rect x="336" y="98" width="8" height="4"/>
    <rect x="344" y="98" width="8" height="4"/>
    <rect x="352" y="98" width="8" height="4"/>
    <rect x="360" y="98" width="8" height="4"/>
    <rect x="368" y="98" width="8" height="4"/>
    <rect x="376" y="98" width="8" height="4"/>
    <rect x="384" y="98" width="8" height="4"/>
    <rect x="392" y="98" width="8" height="4"/>
    <rect x="400" y="98" width="8" height="4"/>
    <rect x="408" y="98" width="8" height="4"/>
    <rect x="416" y="98" width="8" height="4"/>
    <rect x="424" y="98" width="8" height="4"/>
    <rect x="432" y="98" width="8" height="4"/>
    <rect x="440" y="98" width="8" height="4"/>
    <rect x="448" y="98" width="8" height="4"/>
    <rect x="456" y="98" width="8" height="4"/>
    <rect x="464" y="98" width="8" height="4"/>
    <rect x="472" y="98" width="8" height="4"/>
    <rect x="480" y="98" width="8" height="4"/>
    <rect x="488" y="98" width="8" height="4"/>
    <rect x="496" y="98" width="8" height="4"/>
    <rect x="504" y="98" width="8" height="4"/>
    <rect x="512" y="98" width="8" height="4"/>
    <rect x="520" y="98" width="8" height="4"/>
    <rect x="528" y="98" width="8" height="4"/>
    <rect x="536" y="98" width="8" height="4"/>
    <rect x="544" y="98" width="8" height="4"/>
    <rect x="552" y="98" width="8" height="4"/>
    <rect x="560" y="98" width="8" height="4"/>
    <rect x="568" y="98" width="8" height="4"/>
    <rect x="576" y="98" width="8" height="4"/>
  </g>
</svg>
